<?xml version="1.0" encoding="utf-8"?>
<!-- Generator: Adobe Illustrator 22.1.0, SVG Export Plug-In . SVG Version: 6.00 Build 0)  -->
<svg version="1.1" id="working" xmlns="http://www.w3.org/2000/svg" xmlns:xlink="http://www.w3.org/1999/xlink" x="0px" y="0px"
	 viewBox="0 0 100.5 100" style="enable-background:new 0 0 100.5 100;" xml:space="preserve">
<style type="text/css">
	.st0{opacity:0.35;enable-background:new    ;}
</style>
<title>ghost-img_</title>
<path class="st0" d="M15.3,58.2c0,3.9,3.2,7.1,7.1,7.1s7.1-3.2,7.1-7.1s-3.2-7.1-7.1-7.1l0,0C18.5,51,15.3,54.2,15.3,58.2z
	 M18.9,58.3c0-2,1.6-3.6,3.6-3.6s3.6,1.6,3.6,3.6s-1.6,3.6-3.6,3.6l0,0C20.5,61.9,18.9,60.3,18.9,58.3z"/>
<path class="st0" d="M73.3,58.2c0,3.9,3.2,7.1,7.1,7.1s7.1-3.2,7.1-7.1S84.4,51,80.4,51l0,0C76.5,51.1,73.3,54.2,73.3,58.2z
	 M76.8,58.3c0-2,1.6-3.6,3.6-3.6s3.6,1.6,3.6,3.6s-1.6,3.6-3.6,3.6l0,0C78.4,61.9,76.8,60.3,76.8,58.3L76.8,58.3z"/>
<path class="st0" d="M41.8,37.2l2,6.8H26.4l4-5.9C30.4,38.1,31.2,37.7,41.8,37.2z"/>
<path class="st0" d="M20.4,44c0,0-0.8-0.2,0.2-0.9c2.5-1.9,5.3-3.5,8.3-4.5L25.1,44H20.4z"/>
<path class="st0" d="M44.2,37.2c0,0,9-0.6,15.3,3.2s7.3,4.2,7.3,4.2L46.5,44L44.2,37.2z"/>
<path class="st0" d="M95.5,49.9H95l0.9-0.8c2.8,3,1.5,7.3,1,8.6l0.8,0.9c0.1,0.2,0.2,0.4,0.1,0.6c-0.1,0.2-0.2,0.4-0.4,0.4l-4.7,1.1
	l-0.4,0.6c-0.1,0.2-0.3,0.3-0.5,0.3h-2.3v-1.3h2l0.3-0.5c0.1-0.1,0.2-0.3,0.4-0.3l4-0.9l-0.3-0.4c-0.2-0.2-0.2-0.4-0.1-0.7
	c0,0,1.8-4.3-0.4-7.2L95.5,49.9L95.5,49.9z"/>
<path class="st0" d="M2.7,52.1c0-0.2,0.2-0.4,0.3-0.5c0.4-0.2,0.7-0.4,1-0.8v-3.3c-0.1-0.8,0-1.7,0.5-2.4l0.2-0.4
	c0.1-0.6,0.2-1.2,0.3-1.8c0.1-0.3,0.3-0.4,0.6-0.5c2.4-0.1,4.8-0.4,7.2-0.8l0.8-0.1c3.7-2,7.6-3.6,11.6-4.9c6.1-1.9,9.4-1.8,9.4-1.8
	s7.1-0.3,15,0c2.7,0,5.4,0.5,8,1.4c2.7,1,5.5,2.6,9.7,5l3.2,1.9c13.7,0.7,21.9,2.6,25.1,5.6l0.2,0.2L95,49.8l0,0l-0.2-0.2
	c-3-2.9-11-4.6-24.5-5.3c-0.1,0-0.2,0-0.3-0.1l-3.4-2c-4.3-2.5-6.8-4-9.5-4.9c-2.5-0.8-5-1.3-7.7-1.3c-7.8-0.3-14.8,0-14.9,0
	s-3.2-0.1-9.1,1.7c-4,1.3-7.8,2.9-11.5,4.8c-0.1,0-0.1,0-0.2,0.1l-0.9,0.1c-3.9,0.6-6,0.8-6.9,0.8C6.1,44,6,44.5,6,44.9
	c0,0.1,0,0.2-0.1,0.3l-0.3,0.6c-0.3,0.6-0.3,0.6-0.3,1.8V51c0,0.1,0,0.2-0.1,0.3c-0.3,0.5-0.8,1-1.3,1.3c-0.2,2.1,0,5,1.3,5.3
	c3.3,0.7,8.3,1.3,8.3,1.3l-0.2,1.3c0,0-5.1-0.7-8.4-1.3C2.2,58.4,2.6,53.2,2.7,52.1z"/>
<rect x="31.5" y="60.2" class="st0" width="41.1" height="1.3"/>
<path class="st0" d="M95,49.8L95,49.8L95,49.8c0.1,0.1,0.2,0.3,0.3,0.4l-0.4,1h-1.1l1.1,0.7h-4l-3.1-3.1C90.2,49,92.5,49.3,95,49.8
	L95,49.8L95,49.8L95,49.8z"/>
<path class="st0" d="M95,49.8h0.4l0,0l-0.2,0.4C95.2,50.1,95.1,50,95,49.8L95,49.8z"/>
<path class="st0" d="M95,49.9L95,49.9L95,49.9z"/>
<path class="st0" d="M47.6,47h3.5c0.3,0,0.5,0.2,0.5,0.5v0.1c0,0.3-0.2,0.5-0.5,0.5h-3.5c-0.3,0-0.5-0.2-0.5-0.5v-0.1
	C47.1,47.2,47.4,47,47.6,47z"/>
<path class="st0" d="M26.6,47h3.5c0.3,0,0.5,0.2,0.5,0.5v0.1c0,0.3-0.2,0.5-0.5,0.5h-3.5c-0.3,0-0.5-0.2-0.5-0.5v-0.1
	C26.1,47.2,26.3,47,26.6,47z"/>
</svg>
