<svg width="108" height="20" viewBox="0 0 108 20" fill="none" xmlns="http://www.w3.org/2000/svg">
<path d="M0.580256 19V0.818181H7.75355C9.12666 0.818181 10.2985 1.0638 11.2692 1.55504C12.2457 2.04036 12.9885 2.72988 13.4975 3.62358C14.0124 4.51136 14.2699 5.55599 14.2699 6.75746C14.2699 7.96484 14.0095 9.00355 13.4886 9.87358C12.9678 10.7377 12.2132 11.4006 11.2248 11.8622C10.2423 12.3239 9.05268 12.5547 7.6559 12.5547H2.85298V9.4652H7.03445C7.76835 9.4652 8.37796 9.36458 8.86328 9.16335C9.3486 8.96212 9.70964 8.66027 9.94638 8.25781C10.189 7.85535 10.3104 7.35523 10.3104 6.75746C10.3104 6.15376 10.189 5.64477 9.94638 5.23047C9.70964 4.81617 9.34564 4.50248 8.8544 4.28942C8.36908 4.07043 7.75651 3.96094 7.01669 3.96094H4.42436V19H0.580256ZM10.3991 10.7259L14.918 19H10.6744L6.2532 10.7259H10.3991ZM22.4852 19.2663C21.0825 19.2663 19.8752 18.9822 18.8631 18.4141C17.8569 17.84 17.0816 17.0291 16.5371 15.9815C15.9926 14.928 15.7203 13.6822 15.7203 12.244C15.7203 10.8413 15.9926 9.6102 16.5371 8.55078C17.0816 7.49136 17.8481 6.66572 18.8365 6.07386C19.8308 5.48201 20.9967 5.18608 22.3343 5.18608C23.2339 5.18608 24.0714 5.33108 24.8468 5.62109C25.628 5.90518 26.3086 6.33428 26.8887 6.90838C27.4746 7.48248 27.9303 8.20455 28.2558 9.07457C28.5814 9.93868 28.7441 10.9508 28.7441 12.1108V13.1495H17.2296V10.8058H25.1841C25.1841 10.2612 25.0657 9.77888 24.829 9.35866C24.5923 8.93845 24.2638 8.60997 23.8436 8.37322C23.4293 8.13056 22.9469 8.00923 22.3965 8.00923C21.8224 8.00923 21.3134 8.1424 20.8695 8.40874C20.4315 8.66915 20.0882 9.02131 19.8396 9.4652C19.5911 9.90317 19.4638 10.3915 19.4579 10.93V13.1584C19.4579 13.8331 19.5822 14.4161 19.8308 14.9073C20.0853 15.3986 20.4433 15.7773 20.905 16.0437C21.3666 16.31 21.9141 16.4432 22.5474 16.4432C22.9676 16.4432 23.3523 16.384 23.7015 16.2656C24.0507 16.1473 24.3496 15.9697 24.5982 15.733C24.8468 15.4962 25.0361 15.2062 25.1664 14.8629L28.6642 15.0938C28.4867 15.9342 28.1227 16.6681 27.5722 17.2955C27.0277 17.9169 26.3234 18.4022 25.4593 18.7514C24.6011 19.0947 23.6098 19.2663 22.4852 19.2663ZM34.5691 11.1165V19H30.7872V5.36364H34.3916V7.76953H34.5514C34.8532 6.97644 35.3593 6.34908 36.0695 5.88743C36.7797 5.41986 37.6409 5.18608 38.6529 5.18608C39.5999 5.18608 40.4255 5.39323 41.1298 5.80753C41.8342 6.22183 42.3816 6.81368 42.7722 7.5831C43.1629 8.34659 43.3582 9.25805 43.3582 10.3175V19H39.5762V10.9922C39.5821 10.1577 39.3691 9.50663 38.937 9.03906C38.505 8.56558 37.9102 8.32884 37.1526 8.32884C36.6436 8.32884 36.1938 8.43833 35.8031 8.65731C35.4184 8.8763 35.1166 9.1959 34.8976 9.61612C34.6845 10.0304 34.575 10.5305 34.5691 11.1165ZM53.1671 5.36364V8.20455H44.9551V5.36364H53.1671ZM46.8195 2.09659H50.6014V14.8097C50.6014 15.1589 50.6547 15.4311 50.7612 15.6264C50.8678 15.8158 51.0157 15.949 51.2051 16.0259C51.4004 16.1029 51.6253 16.1413 51.8798 16.1413C52.0574 16.1413 52.2349 16.1265 52.4125 16.0969C52.5901 16.0614 52.7262 16.0348 52.8209 16.017L53.4157 18.8313C53.2263 18.8905 52.96 18.9586 52.6167 19.0355C52.2734 19.1184 51.8562 19.1687 51.3649 19.1864C50.4535 19.2219 49.6544 19.1006 48.9679 18.8224C48.2873 18.5443 47.7576 18.1122 47.3788 17.5263C47 16.9403 46.8135 16.2005 46.8195 15.3068V2.09659ZM59.0942 19.2575C58.2242 19.2575 57.4489 19.1065 56.7682 18.8047C56.0876 18.4969 55.549 18.0442 55.1524 17.4464C54.7618 16.8427 54.5665 16.091 54.5665 15.1914C54.5665 14.4338 54.7056 13.7976 54.9838 13.2827C55.2619 12.7678 55.6407 12.3535 56.1201 12.0398C56.5995 11.7261 57.144 11.4893 57.7537 11.3295C58.3692 11.1697 59.0143 11.0573 59.689 10.9922C60.4821 10.9093 61.1213 10.8324 61.6066 10.7614C62.092 10.6844 62.4441 10.572 62.6631 10.424C62.8821 10.276 62.9916 10.0571 62.9916 9.76705V9.71378C62.9916 9.15152 62.814 8.7165 62.4589 8.40874C62.1097 8.10097 61.6126 7.94709 60.9674 7.94709C60.2868 7.94709 59.7453 8.09801 59.3428 8.39986C58.9403 8.69579 58.674 9.06866 58.5438 9.51847L55.0459 9.23438C55.2235 8.40578 55.5727 7.68963 56.0935 7.08594C56.6143 6.47633 57.2861 6.00876 58.1088 5.68324C58.9374 5.3518 59.8962 5.18608 60.9852 5.18608C61.7428 5.18608 62.4678 5.27486 63.1603 5.45241C63.8587 5.62997 64.4771 5.90518 65.0157 6.27805C65.5602 6.65092 65.9893 7.13033 66.303 7.71626C66.6167 8.29628 66.7735 8.99171 66.7735 9.80256V19H63.1869V17.109H63.0804C62.8614 17.5352 62.5684 17.911 62.2015 18.2365C61.8345 18.5561 61.3936 18.8076 60.8787 18.9911C60.3637 19.1687 59.7689 19.2575 59.0942 19.2575ZM60.1773 16.6474C60.7337 16.6474 61.2249 16.5379 61.651 16.3189C62.0772 16.094 62.4116 15.7921 62.6542 15.4134C62.8969 15.0346 63.0182 14.6055 63.0182 14.1261V12.679C62.8998 12.7559 62.7371 12.8269 62.5299 12.892C62.3287 12.9512 62.1008 13.0075 61.8463 13.0607C61.5918 13.1081 61.3373 13.1525 61.0828 13.1939C60.8283 13.2294 60.5975 13.262 60.3904 13.2915C59.9465 13.3567 59.5588 13.4602 59.2274 13.6023C58.8959 13.7443 58.6385 13.9367 58.455 14.1793C58.2715 14.4161 58.1798 14.712 58.1798 15.0671C58.1798 15.582 58.3662 15.9756 58.7391 16.2479C59.1179 16.5142 59.5973 16.6474 60.1773 16.6474ZM73.0646 0.818181V19H69.2827V0.818181H73.0646Z" fill="black"/>
<path d="M87.7963 6.69531C87.672 6.26326 87.4974 5.88151 87.2725 5.55007C87.0476 5.21271 86.7724 4.92862 86.4469 4.6978C86.1273 4.46106 85.7603 4.28054 85.346 4.15625C84.9377 4.03196 84.4849 3.96982 83.9877 3.96982C83.0585 3.96982 82.2418 4.20064 81.5374 4.66229C80.8391 5.12393 80.2945 5.79569 79.9039 6.67756C79.5133 7.5535 79.318 8.62476 79.318 9.89134C79.318 11.1579 79.5103 12.2351 79.895 13.1229C80.2797 14.0107 80.8243 14.6883 81.5286 15.1559C82.2329 15.6175 83.0644 15.8484 84.0232 15.8484C84.8933 15.8484 85.636 15.6945 86.2516 15.3867C86.873 15.073 87.3465 14.6321 87.672 14.0639C88.0035 13.4957 88.1692 12.824 88.1692 12.0487L88.9504 12.1641H84.2629V9.26989H91.8713V11.5604C91.8713 13.1584 91.5339 14.5315 90.8592 15.6797C90.1845 16.822 89.2552 17.7038 88.0715 18.3253C86.8878 18.9408 85.5325 19.2486 84.0055 19.2486C82.3009 19.2486 80.8035 18.8728 79.5133 18.1211C78.223 17.3635 77.2169 16.2893 76.4948 14.8984C75.7787 13.5017 75.4206 11.8445 75.4206 9.92685C75.4206 8.45312 75.6337 7.1392 76.0598 5.98508C76.4919 4.82505 77.0956 3.84257 77.8709 3.03764C78.6462 2.23272 79.5488 1.62015 80.5786 1.19993C81.6085 0.77971 82.7241 0.569602 83.9256 0.569602C84.9554 0.569602 85.9142 0.720525 86.802 1.02237C87.6898 1.3183 88.477 1.73852 89.1635 2.28303C89.856 2.82753 90.4212 3.47561 90.8592 4.22727C91.2972 4.97301 91.5783 5.79569 91.7026 6.69531H87.7963ZM100.424 19.2663C99.0449 19.2663 97.8524 18.9734 96.8462 18.3874C95.846 17.7956 95.0736 16.9729 94.5291 15.9194C93.9846 14.86 93.7123 13.6319 93.7123 12.2351C93.7123 10.8265 93.9846 9.59541 94.5291 8.5419C95.0736 7.48248 95.846 6.6598 96.8462 6.07386C97.8524 5.48201 99.0449 5.18608 100.424 5.18608C101.803 5.18608 102.993 5.48201 103.993 6.07386C104.999 6.6598 105.774 7.48248 106.319 8.5419C106.863 9.59541 107.136 10.8265 107.136 12.2351C107.136 13.6319 106.863 14.86 106.319 15.9194C105.774 16.9729 104.999 17.7956 103.993 18.3874C102.993 18.9734 101.803 19.2663 100.424 19.2663ZM100.442 16.3366C101.069 16.3366 101.593 16.1591 102.013 15.804C102.433 15.4429 102.75 14.9517 102.963 14.3303C103.182 13.7088 103.292 13.0015 103.292 12.2085C103.292 11.4154 103.182 10.7081 102.963 10.0866C102.75 9.4652 102.433 8.97396 102.013 8.61293C101.593 8.25189 101.069 8.07138 100.442 8.07138C99.8084 8.07138 99.2758 8.25189 98.8437 8.61293C98.4176 8.97396 98.095 9.4652 97.876 10.0866C97.663 10.7081 97.5564 11.4154 97.5564 12.2085C97.5564 13.0015 97.663 13.7088 97.876 14.3303C98.095 14.9517 98.4176 15.4429 98.8437 15.804C99.2758 16.1591 99.8084 16.3366 100.442 16.3366Z" fill="#5EA1FF"/>
</svg>
